<svg width="420" height="52" viewBox="0 0 420 52" fill="none" xmlns="http://www.w3.org/2000/svg">
<path d="M8.52014 0H55.3809C60.067 0 63.901 3.87141 63.901 8.60314V43.0157C63.901 47.7474 60.067 51.6188 55.3809 51.6188H8.52014C3.83406 51.6188 0 47.7474 0 43.0157V8.60314C0 3.87141 3.83406 0 8.52014 0Z" fill="url(#paint0_linear_3_46)"/>
<path d="M85.2014 49.468L63.901 36.5633V15.0555L85.2014 2.1508V49.468Z" fill="#388E3C"/>
<path d="M156.634 13.1191C158.648 13.1191 160.441 13.548 162.014 14.4056C163.587 15.2315 164.829 16.4863 165.742 18.1698C166.654 19.8534 167.11 21.9023 167.11 24.3164V39.7068H162.863V24.9359C162.863 22.3311 162.218 20.3458 160.928 18.9798C159.67 17.5822 157.956 16.8833 155.785 16.8833C153.551 16.8833 151.774 17.6139 150.453 19.0751C149.131 20.5046 148.471 22.5852 148.471 25.317V39.7068H144.224V24.9359C144.224 22.3311 143.579 20.3458 142.289 18.9798C141.031 17.5822 139.316 16.8833 137.145 16.8833C134.912 16.8833 133.134 17.6139 131.813 19.0751C130.492 20.5046 129.831 22.5852 129.831 25.317V39.7068H125.537V13.5956H129.831V17.3598C130.681 15.9939 131.813 14.9456 133.229 14.215C134.676 13.4844 136.265 13.1191 137.995 13.1191C140.165 13.1191 142.084 13.6115 143.752 14.5962C145.419 15.5809 146.662 17.0263 147.48 18.9322C148.203 17.0898 149.399 15.6604 151.066 14.6439C152.733 13.6274 154.589 13.1191 156.634 13.1191Z" fill="black"/>
<path d="M196.427 13.5956L180.855 52H176.419L181.515 39.4209L171.087 13.5956H175.853L183.969 34.7514L191.991 13.5956H196.427Z" fill="black"/>
<path d="M231.841 13.1191C233.854 13.1191 235.647 13.548 237.22 14.4056C238.793 15.2315 240.036 16.4863 240.948 18.1698C241.861 19.8534 242.317 21.9023 242.317 24.3164V39.7068H238.07V24.9359C238.07 22.3311 237.425 20.3458 236.135 18.9798C234.877 17.5822 233.162 16.8833 230.991 16.8833C228.758 16.8833 226.98 17.6139 225.659 19.0751C224.338 20.5046 223.677 22.5852 223.677 25.317V39.7068H219.43V24.9359C219.43 22.3311 218.785 20.3458 217.496 18.9798C216.237 17.5822 214.523 16.8833 212.352 16.8833C210.118 16.8833 208.341 17.6139 207.02 19.0751C205.698 20.5046 205.038 22.5852 205.038 25.317V39.7068H200.744V13.5956H205.038V17.3598C205.887 15.9939 207.02 14.9456 208.435 14.215C209.882 13.4844 211.471 13.1191 213.201 13.1191C215.372 13.1191 217.291 13.6115 218.958 14.5962C220.626 15.5809 221.868 17.0263 222.686 18.9322C223.41 17.0898 224.605 15.6604 226.273 14.6439C227.94 13.6274 229.796 13.1191 231.841 13.1191Z" fill="black"/>
<path d="M272.955 25.6506C272.955 26.4765 272.908 27.35 272.813 28.2712H252.145C252.302 30.8442 253.167 32.8613 254.74 34.3225C256.345 35.752 258.279 36.4667 260.544 36.4667C262.4 36.4667 263.942 36.0379 265.169 35.1802C266.427 34.2908 267.308 33.1155 267.811 31.6542H272.436C271.744 34.1637 270.36 36.2126 268.283 37.8008C266.207 39.3574 263.627 40.1356 260.544 40.1356C258.091 40.1356 255.888 39.5797 253.938 38.4679C252.019 37.3561 250.509 35.7837 249.408 33.7508C248.307 31.686 247.756 29.3036 247.756 26.6035C247.756 23.9035 248.291 21.537 249.361 19.504C250.43 17.471 251.925 15.9145 253.844 14.8345C255.794 13.7227 258.028 13.1668 260.544 13.1668C262.998 13.1668 265.169 13.7068 267.056 14.7868C268.944 15.8668 270.391 17.3598 271.398 19.2657C272.436 21.1399 272.955 23.2682 272.955 25.6506ZM268.519 24.7453C268.519 23.0935 268.157 21.6799 267.434 20.5046C266.71 19.2975 265.719 18.3922 264.461 17.7886C263.234 17.1533 261.866 16.8357 260.356 16.8357C258.185 16.8357 256.329 17.5345 254.787 18.9322C253.277 20.3299 252.412 22.2676 252.192 24.7453H268.519Z" fill="black"/>
<path d="M302.217 25.6506C302.217 26.4765 302.17 27.35 302.076 28.2712H281.407C281.564 30.8442 282.43 32.8613 284.003 34.3225C285.607 35.752 287.542 36.4667 289.807 36.4667C291.663 36.4667 293.204 36.0379 294.431 35.1802C295.69 34.2908 296.57 33.1155 297.074 31.6542H301.698C301.006 34.1637 299.622 36.2126 297.546 37.8008C295.469 39.3574 292.89 40.1356 289.807 40.1356C287.353 40.1356 285.151 39.5797 283.2 38.4679C281.281 37.3561 279.771 35.7837 278.67 33.7508C277.569 31.686 277.019 29.3036 277.019 26.6035C277.019 23.9035 277.553 21.537 278.623 19.504C279.693 17.471 281.187 15.9145 283.106 14.8345C285.056 13.7227 287.29 13.1668 289.807 13.1668C292.26 13.1668 294.431 13.7068 296.319 14.7868C298.206 15.8668 299.653 17.3598 300.66 19.2657C301.698 21.1399 302.217 23.2682 302.217 25.6506ZM297.782 24.7453C297.782 23.0935 297.42 21.6799 296.696 20.5046C295.973 19.2975 294.982 18.3922 293.723 17.7886C292.496 17.1533 291.128 16.8357 289.618 16.8357C287.447 16.8357 285.591 17.5345 284.05 18.9322C282.54 20.3299 281.675 22.2676 281.454 24.7453H297.782Z" fill="black"/>
<path d="M313.123 17.1692V32.5596C313.123 33.8302 313.391 34.7355 313.926 35.2755C314.46 35.7837 315.388 36.0379 316.71 36.0379H319.871V39.7068H316.002C313.611 39.7068 311.818 39.1509 310.622 38.0391C309.427 36.9273 308.829 35.1008 308.829 32.5596V17.1692H305.479V13.5956H308.829V7.02016H313.123V13.5956H319.871V17.1692H313.123Z" fill="black"/>
<path d="M326.443 39.9927C325.625 39.9927 324.933 39.7068 324.366 39.135C323.8 38.5632 323.517 37.8644 323.517 37.0385C323.517 36.2126 323.8 35.5137 324.366 34.942C324.933 34.3702 325.625 34.0843 326.443 34.0843C327.229 34.0843 327.89 34.3702 328.425 34.942C328.991 35.5137 329.274 36.2126 329.274 37.0385C329.274 37.8644 328.991 38.5632 328.425 39.135C327.89 39.7068 327.229 39.9927 326.443 39.9927Z" fill="black"/>
<path d="M342.343 4.44716V39.7068H334.274V4.44716H342.343Z" fill="black"/>
<path d="M352.249 10.3555C350.834 10.3555 349.67 9.94258 348.757 9.11668C347.876 8.25901 347.436 7.21075 347.436 5.9719C347.436 4.70128 347.876 3.65302 348.757 2.82712C349.67 1.96945 350.834 1.54062 352.249 1.54062C353.633 1.54062 354.766 1.96945 355.647 2.82712C356.559 3.65302 357.015 4.70128 357.015 5.9719C357.015 7.21075 356.559 8.25901 355.647 9.11668C354.766 9.94258 353.633 10.3555 352.249 10.3555ZM356.26 13.1191V39.7068H348.191V13.1191H356.26Z" fill="black"/>
<path d="M378.152 12.8332C381.235 12.8332 383.689 13.8497 385.513 15.8827C387.369 17.8839 388.297 20.6475 388.297 24.1735V39.7068H380.275V25.2694C380.275 23.4905 379.819 22.1087 378.907 21.124C377.995 20.1393 376.768 19.6469 375.226 19.6469C373.685 19.6469 372.458 20.1393 371.546 21.124C370.633 22.1087 370.177 23.4905 370.177 25.2694V39.7068H362.108V13.1191H370.177V16.6451C370.995 15.4698 372.096 14.5486 373.48 13.8815C374.865 13.1826 376.422 12.8332 378.152 12.8332Z" fill="black"/>
<path d="M409.996 39.7068L401.974 28.5571V39.7068H393.905V4.44716H401.974V23.9352L409.949 13.1191H419.906L408.958 26.4606L420 39.7068H409.996Z" fill="black"/>
<defs>
<linearGradient id="paint0_linear_3_46" x1="0" y1="26" x2="420" y2="26" gradientUnits="userSpaceOnUse">
<stop stop-color="#4CAF50"/>
<stop offset="1" stop-color="#FFE500"/>
</linearGradient>
</defs>
</svg>
